<svg width="34" height="38" viewBox="0 0 34 38" fill="none" xmlns="http://www.w3.org/2000/svg">
<rect width="34" height="38" rx="10" fill="white"/>
<path d="M23.4668 19.0576C23.4668 18.8457 23.3779 18.6406 23.2207 18.4902L18.7295 13.999C18.5518 13.8281 18.3672 13.7529 18.1758 13.7529C17.7383 13.7529 17.4238 14.0605 17.4238 14.4775C17.4238 14.6963 17.5127 14.8809 17.6494 15.0176L19.1875 16.5762L21.1699 18.3877L19.584 18.292H11.2988C10.8408 18.292 10.5264 18.6064 10.5264 19.0576C10.5264 19.502 10.8408 19.8164 11.2988 19.8164H19.584L21.1699 19.7207L19.1875 21.5322L17.6494 23.0908C17.5127 23.2275 17.4238 23.4121 17.4238 23.6309C17.4238 24.0479 17.7383 24.3555 18.1758 24.3555C18.3672 24.3555 18.5518 24.2803 18.7158 24.123L23.2207 19.6182C23.3779 19.4678 23.4668 19.2627 23.4668 19.0576Z" fill="#090F1E"/>
</svg>