<svg width="49" height="49" viewBox="0 0 49 49" fill="none" xmlns="http://www.w3.org/2000/svg">
<circle cx="24.5" cy="24.5" r="24" fill="white" stroke="#EFEFEF"/>
<path d="M18.1333 30.3359C17.8511 30.6182 17.8428 31.0996 18.1333 31.3818C18.4238 31.6641 18.9053 31.6641 19.1875 31.3818L24.5 26.0693L29.8125 31.3818C30.0947 31.6641 30.5845 31.6724 30.8667 31.3818C31.1489 31.0913 31.1489 30.6182 30.8667 30.3359L25.5542 25.0151L30.8667 19.7026C31.1489 19.4204 31.1572 18.939 30.8667 18.6567C30.5762 18.3662 30.0947 18.3662 29.8125 18.6567L24.5 23.9692L19.1875 18.6567C18.9053 18.3662 18.4155 18.3579 18.1333 18.6567C17.8511 18.9473 17.8511 19.4204 18.1333 19.7026L23.4458 25.0151L18.1333 30.3359Z" fill="#FF4F13"/>
</svg>
