<svg width="70" height="70" viewBox="0 0 70 70" fill="none" xmlns="http://www.w3.org/2000/svg">
<circle cx="35" cy="35" r="35" fill="#FF4F13"/>
<path fill-rule="evenodd" clip-rule="evenodd" d="M46.0387 22.9399C45.2577 22.1589 43.9914 22.1589 43.2103 22.9399L35 31.1502L26.7897 22.9399C26.0087 22.1589 24.7423 22.1589 23.9613 22.9399L22.9399 23.9613C22.1588 24.7423 22.1589 26.0087 22.9399 26.7897L31.1502 35L22.9399 43.2103C22.1589 43.9914 22.1589 45.2577 22.9399 46.0387L23.9613 47.0601C24.7423 47.8412 26.0087 47.8412 26.7897 47.0601L35 38.8498L43.2103 47.0601C43.9913 47.8411 45.2577 47.8411 46.0387 47.0601L47.0601 46.0387C47.8411 45.2577 47.8411 43.9913 47.0601 43.2103L38.8498 35L47.0601 26.7897C47.8412 26.0087 47.8412 24.7423 47.0601 23.9613L46.0387 22.9399Z" fill="white"/>
</svg>
