<svg width="143" height="24" viewBox="0 0 143 24" fill="none" xmlns="http://www.w3.org/2000/svg">
<path d="M19.4678 18.3789C19.4678 18.3789 30.8547 18.3789 32.5077 18.3789C34.5279 18.3789 37.8338 16.3559 39.0276 14.0571C39.6704 12.8618 45.5476 1 45.5476 1H41.2315C41.2315 1 38.7521 6.05734 38.5685 6.42514C38.3848 6.79295 37.4665 7.52856 36.9155 7.52856C36.64 7.52856 30.7629 7.52856 30.4874 7.52856C30.0283 7.52856 29.6609 6.8849 29.9364 6.24124C30.1201 5.87343 32.5077 1 32.5077 1H28.1916C28.1916 1 25.6204 6.14929 24.9776 7.52856C23.5083 10.471 25.3449 11.8503 27.1815 11.8503C28.0998 11.8503 33.7933 11.8503 34.8034 11.8503C35.6299 11.8503 35.5381 12.5859 35.3544 12.9537C35.1707 13.2296 34.5279 14.0571 33.7015 14.0571C32.6913 14.0571 21.7635 14.0571 21.7635 14.0571L19.4678 18.3789Z" fill="#4B6CA6"/>
<path d="M86.6883 18.3789C86.6883 18.3789 76.4952 18.3789 75.2095 18.3789C72.9138 18.3789 72.1791 17.0915 73.1893 14.9766C74.0157 13.3215 77.6889 6.05734 78.5154 4.40221C79.5255 2.37927 81.454 1 83.8416 1C85.4945 1 95.4122 1 95.4122 1L93.2082 5.32172C93.2082 5.32172 83.3824 5.32172 83.0151 5.32172C82.6478 5.32172 82.1886 5.59758 82.0968 5.87344C81.9131 6.24124 78.6072 12.9537 78.4236 13.3215C78.2399 13.6893 78.3318 13.9652 78.7909 13.9652C79.2501 13.9652 88.9841 13.9652 88.9841 13.9652L86.6883 18.3789Z" fill="#4B6CA6"/>
<path d="M0 18.3789C0 18.3789 4.95883 8.44808 5.60165 7.16076C7.43825 3.48269 10.836 1 13.6827 1C15.3357 1 19.468 1 21.0291 1C23.8759 1 24.7942 3.48269 23.1412 6.8849C22.3148 8.54003 17.3559 18.3789 17.3559 18.3789H13.0399C13.0399 18.3789 18.5497 7.34466 18.7334 6.97685C19.0089 6.33319 18.8252 5.41368 17.9069 5.41368C17.5396 5.41368 12.6726 5.41368 12.3971 5.41368C11.6624 5.41368 10.3768 6.24124 9.91767 7.16076C9.73401 7.62051 4.31602 18.3789 4.31602 18.3789H0Z" fill="#4B6CA6"/>
<path d="M54.1329 18.3788C54.1329 18.3788 60.8366 4.86197 62.765 1C57.8062 1 47.613 1 40.7257 14.7927C39.3483 17.6432 38.981 18.3788 38.981 18.3788H43.297C43.297 18.3788 43.6643 17.6432 44.3989 16.172C48.9905 6.8849 53.7656 6.24124 55.8777 6.24124C54.7758 8.54003 49.8169 18.4708 49.8169 18.4708H54.1329" fill="#4B6CA6"/>
<path d="M67.1278 5.41352L69.3317 1.0918H65.0157L57.3938 16.2638C57.3938 16.2638 57.3938 16.2638 57.2101 16.7236C56.8428 17.5511 57.1183 18.4706 58.3121 18.4706C59.6895 18.4706 61.5261 18.4706 62.9036 18.4706C65.383 18.4706 70.3419 16.5397 72.6376 11.9421C74.9334 7.34451 71.903 5.41352 69.4235 5.41352C67.3115 5.41352 67.1278 5.41352 67.1278 5.41352ZM65.0157 14.057C62.9954 14.057 62.8118 14.057 62.8118 14.057L65.0157 9.73525C65.0157 9.73525 65.2912 9.73525 67.2196 9.73525C68.6889 9.73525 68.7807 10.9306 68.3216 11.9421C67.7706 12.8616 66.3932 14.057 65.0157 14.057Z" fill="#4B6CA6"/>
<path d="M96.7893 11.8503C100.554 6.79295 104.044 6.14929 105.697 6.14929C105.238 7.16076 104.044 9.45955 102.85 11.8503H107.166C109.186 7.98832 111.574 3.02293 112.584 1C107.993 1 98.9932 1 92.1978 11.8503H96.7893Z" fill="#4B6CA6"/>
<path d="M101.84 14.0571C100.646 16.4479 99.6357 18.3789 99.6357 18.3789H103.952C103.952 18.3789 104.87 16.7237 106.156 14.0571H101.84Z" fill="#4B6CA6"/>
<path d="M91.0037 14.0573C90.9119 14.3331 90.7282 14.609 90.6364 14.7929C89.2589 17.6434 88.8916 18.379 88.8916 18.379H93.2076C93.2076 18.379 93.5749 17.6434 94.3096 16.1722C94.6769 15.3446 95.136 14.7009 95.5034 13.9653L91.0037 14.0573Z" fill="#4B6CA6"/>
<path d="M108.36 14.0571L106.156 18.3789H110.472L112.676 14.0571H108.36Z" fill="#4B6CA6"/>
<path d="M123.511 1C121.859 1 118.461 1 116.441 1C115.522 1 114.604 1.55171 114.145 2.37927C113.869 2.93098 113.869 2.93098 113.869 2.93098L109.37 11.8503H113.686C113.686 11.8503 114.696 11.8503 115.89 11.8503C116.532 11.8503 117.267 11.8503 118.002 11.8503C120.573 11.8503 124.981 10.9308 127.277 6.33319C129.664 1.73561 125.991 1 123.511 1ZM122.961 6.42514C122.501 7.34466 120.573 7.52856 119.195 7.52856C117.267 7.52856 115.981 7.52856 115.981 7.52856L117.083 5.32172C117.083 5.32172 119.379 5.32172 121.399 5.32172C122.777 5.32172 123.42 5.50563 122.961 6.42514Z" fill="#4B6CA6"/>
<path d="M101.84 14.0569H95.4116L96.7891 11.8501H102.942L101.84 14.0569Z" fill="#FF4F13"/>
<path d="M130.675 1C130.675 1.27585 130.675 1.45976 130.675 1.82756C130.675 2.01147 130.675 2.28732 130.675 2.47123C130.675 2.74708 130.583 2.93098 130.583 3.20684C130.491 3.75855 130.4 4.31026 130.216 4.86197C130.032 5.41368 129.849 6.05734 129.573 6.60905C129.298 7.16076 128.93 7.80442 128.563 8.35613C128.471 8.54003 128.379 8.63198 128.287 8.81588L127.92 9.18369C127.828 9.36759 127.736 9.45955 127.553 9.5515C127.461 9.64345 127.369 9.82735 127.185 9.9193C126.726 10.471 126.175 10.9308 125.624 11.2986C125.073 11.7583 124.431 12.1261 123.88 12.402C123.604 12.5859 123.329 12.6779 122.961 12.8618C122.686 12.9537 122.41 13.1376 122.043 13.2296C121.767 13.3215 121.492 13.5054 121.217 13.5054C120.941 13.5974 120.666 13.6893 120.39 13.7813C120.115 13.8732 119.839 13.9652 119.655 13.9652C119.38 14.0571 119.196 14.0571 118.921 14.1491C118.462 14.241 118.094 14.333 117.727 14.333C117.084 14.4249 116.717 14.5169 116.717 14.5169L116.625 14.7927L116.717 14.9766C116.717 14.9766 117.084 14.9766 117.727 15.0686C118.094 15.0686 118.462 15.0686 118.921 15.0686C119.38 15.0686 119.931 15.0686 120.482 14.9766C120.757 14.9766 121.125 14.8847 121.4 14.8847C121.676 14.8847 122.043 14.7927 122.41 14.7008C123.053 14.5169 123.788 14.333 124.431 14.0571C124.798 13.8732 125.165 13.7813 125.441 13.5974C125.624 13.5054 125.808 13.4135 125.992 13.3215C126.175 13.2296 126.359 13.1376 126.543 13.0457C127.185 12.5859 127.92 12.1261 128.471 11.5744C129.114 11.0227 129.665 10.3791 130.124 9.7354C130.583 9.09174 131.042 8.44808 131.41 7.71247C131.777 6.97685 132.052 6.33319 132.236 5.59758C132.42 4.95392 132.603 4.21831 132.695 3.6666C132.787 3.39074 132.787 3.02293 132.787 2.74708C132.787 2.47123 132.787 2.19537 132.879 1.91952C132.879 1.64366 132.879 1.36781 132.879 1.09195L130.675 1Z" fill="#FF4F13"/>
<path d="M135.266 1C135.266 1.09195 135.266 1.1839 135.266 1.27585C135.266 1.55171 135.174 1.91952 135.174 2.28732C135.082 2.65513 135.083 3.02294 134.991 3.39074C134.991 3.57464 134.899 3.75855 134.899 3.94245C134.899 4.0344 134.899 4.12635 134.807 4.21831C134.807 4.31026 134.715 4.40221 134.715 4.49416C134.623 4.67806 134.623 4.86197 134.532 5.13782C134.44 5.32172 134.44 5.50563 134.348 5.78148C134.072 6.60905 133.705 7.43661 133.246 8.35613C132.787 9.18369 132.236 10.0113 131.593 10.8388C130.95 11.5744 130.216 12.31 129.481 13.0457C129.114 13.4135 128.654 13.6893 128.287 13.9652C127.828 14.241 127.461 14.5169 127.001 14.7927C126.542 15.0686 126.083 15.2525 125.624 15.5284C125.165 15.7123 124.706 15.9881 124.247 16.172C123.328 16.5398 122.41 16.8157 121.492 17.0915C121.032 17.1835 120.573 17.3674 120.206 17.4593C119.747 17.5513 119.38 17.6432 119.012 17.7352C118.645 17.8271 118.278 17.9191 117.91 17.9191C117.543 18.011 117.176 18.011 116.9 18.103C116.533 18.1949 116.257 18.195 115.982 18.195C115.706 18.195 115.431 18.2869 115.247 18.2869C114.329 18.3789 113.778 18.3789 113.778 18.3789C113.686 18.3789 113.594 18.5628 113.594 18.6547C113.594 18.7467 113.686 18.7467 113.778 18.9306C113.778 18.9306 114.329 18.9306 115.247 18.9306C115.706 18.9306 116.349 18.9306 116.992 18.9306C117.359 18.9306 117.727 18.9306 118.094 18.8386C118.461 18.8386 118.829 18.7467 119.288 18.7467C119.747 18.6547 120.114 18.6547 120.573 18.5628C121.032 18.4708 121.492 18.3789 121.951 18.3789C122.869 18.1949 123.879 17.9191 124.889 17.6432C125.44 17.4593 125.899 17.2754 126.45 17.0915C126.91 16.9076 127.461 16.6318 128.012 16.4479C128.563 16.172 129.022 15.8962 129.481 15.6203C129.94 15.3444 130.491 14.9766 130.95 14.6088C131.868 13.8732 132.787 13.1376 133.521 12.2181C134.256 11.3905 134.899 10.3791 135.45 9.45955C136.001 8.54003 136.368 7.52856 136.735 6.60905C136.827 6.33319 136.919 6.14929 136.919 5.87344C137.011 5.59758 137.011 5.41368 137.103 5.13782C137.103 5.04587 137.195 4.95392 137.195 4.77002C137.195 4.67806 137.286 4.58611 137.286 4.40221C137.286 4.21831 137.378 3.94245 137.378 3.75855C137.47 3.29879 137.47 2.93098 137.562 2.56318C137.562 2.19537 137.654 1.82756 137.654 1.45976C137.654 1.27585 137.654 1.1839 137.654 1L135.266 1Z" fill="#FF4F13"/>
<path d="M140.042 0.136719V0.412574C139.95 1.24014 139.858 2.25161 139.583 3.26307C139.399 4.27454 139.032 5.37796 138.573 6.48138C138.113 7.5848 137.654 8.78017 136.92 9.88359C136.277 10.987 135.45 12.0904 134.532 13.1019C134.256 13.3777 134.073 13.5616 133.797 13.8375C133.522 14.1134 133.246 14.2973 133.063 14.5731L132.695 14.9409C132.604 15.0329 132.42 15.1248 132.328 15.3087L131.502 15.9524C131.226 16.1363 130.951 16.3202 130.675 16.5961L130.216 16.8719L130.032 17.0558L129.849 17.1478C129.573 17.3317 129.206 17.5156 128.93 17.6995C128.747 17.7914 128.655 17.8834 128.471 17.9753L128.012 18.2512C127.369 18.527 126.818 18.8948 126.175 19.1707C125.9 19.2626 125.533 19.4466 125.257 19.5385C124.982 19.7224 124.614 19.8144 124.339 19.9063C123.053 20.3661 121.859 20.7339 120.666 21.0097C120.023 21.1017 119.472 21.2856 118.921 21.3775C118.737 21.3775 118.645 21.4695 118.462 21.4695C118.278 21.4695 118.186 21.5614 118.003 21.5614C117.727 21.5614 117.452 21.6534 117.176 21.6534C116.625 21.7453 116.166 21.8373 115.615 21.9292C115.156 22.0212 114.697 22.0212 114.237 22.1131C113.778 22.2051 113.411 22.2051 113.044 22.2971C112.676 22.2971 112.309 22.389 111.942 22.389C110.656 22.481 109.921 22.5729 109.921 22.5729C109.83 22.5729 109.738 22.6649 109.738 22.7568C109.738 22.8488 109.83 22.9407 109.921 22.9407C109.921 22.9407 110.656 22.9407 111.942 23.0327C112.217 23.0327 112.585 23.0327 113.044 23.0327C113.411 23.0327 113.87 23.0327 114.329 23.0327C114.788 23.0327 115.248 23.0327 115.799 23.0327C116.258 23.0327 116.809 22.9407 117.36 22.9407C117.635 22.9407 117.911 22.8488 118.186 22.8488C118.37 22.8488 118.462 22.8488 118.645 22.8488C118.829 22.8488 118.921 22.8488 119.104 22.7568C119.655 22.6649 120.298 22.5729 120.941 22.481C122.227 22.2051 123.512 21.9292 124.89 21.5614C125.257 21.4695 125.533 21.3775 125.9 21.2856C126.267 21.1936 126.543 21.0097 126.91 20.9178C127.645 20.7339 128.288 20.3661 128.93 20.0902L129.481 19.9063C129.665 19.8144 129.849 19.7224 129.94 19.6305C130.308 19.4466 130.583 19.2626 130.951 19.0787L131.226 18.9868L131.502 18.8029L131.961 18.527C132.236 18.3431 132.604 18.1592 132.879 17.8834L133.797 17.2397C133.981 17.1478 134.073 17.0558 134.256 16.8719L134.716 16.5041C134.991 16.2282 135.267 16.0443 135.542 15.7685C135.818 15.4926 136.093 15.2168 136.369 14.9409C137.379 13.8375 138.297 12.6421 139.123 11.4468C139.858 10.2514 140.501 8.96407 140.96 7.7687C141.419 6.57333 141.787 5.37796 142.062 4.18259C142.338 3.07917 142.521 2.0677 142.613 1.05623C142.613 0.872331 142.613 0.688428 142.705 0.596477H140.042" fill="#FF4F13"/>
</svg>
