<svg width="19" height="20" viewBox="0 0 19 20" fill="none" xmlns="http://www.w3.org/2000/svg">
<path d="M12.4777 10.0256L13.4407 11.1756L12.4777 10.0256C11.943 10.4733 11.715 11.1897 11.8927 11.8641L12.5943 14.5276L10.5289 13.0887C9.9106 12.6579 9.0894 12.6579 8.47107 13.0887L6.40567 14.5276L7.10729 11.8641L5.65677 11.482L7.10729 11.8641C7.28495 11.1897 7.05701 10.4733 6.52228 10.0256L5.55927 11.1756L6.52228 10.0256L4.3796 8.23136L7.02224 8.10981C7.75305 8.07619 8.39081 7.60361 8.6357 6.91423L9.5 4.48115L10.3643 6.91423L11.7778 6.41213L10.3643 6.91424C10.6092 7.60361 11.2469 8.07619 11.9778 8.10981L14.6204 8.23136L12.4777 10.0256Z" fill="#FF4F13" stroke="#FF4F13" stroke-width="3"/>
</svg>
