<svg width="17" height="11" viewBox="0 0 17 11" fill="none" xmlns="http://www.w3.org/2000/svg">
<path fill-rule="evenodd" clip-rule="evenodd" d="M16.597 1.21524C16.7156 0.842619 16.597 0.571624 16.072 0.571624H14.3275C13.8871 0.571624 13.6838 0.808745 13.5653 1.0628C13.5653 1.0628 12.6676 3.23076 11.4143 4.63655C11.0078 5.04304 10.8215 5.17854 10.6013 5.17854C10.4827 5.17854 10.3303 5.04304 10.3303 4.67043V1.1983C10.3303 0.757933 10.1948 0.554688 9.82217 0.554688H7.07834C6.80735 0.554688 6.63798 0.757933 6.63798 0.961179C6.63798 1.38461 7.26465 1.48623 7.3324 2.67184V5.24629C7.3324 5.80522 7.23078 5.90684 7.0106 5.90684C6.4178 5.90684 4.97813 3.72194 4.11434 1.23218C3.94497 0.740997 3.77559 0.554688 3.33523 0.554688H1.57376C1.06564 0.554688 0.980957 0.791807 0.980957 1.04586C0.980957 1.50317 1.57376 3.80663 3.74172 6.85532C5.18138 8.9386 7.23078 10.0564 9.07693 10.0564C10.1948 10.0564 10.3303 9.80239 10.3303 9.37896V7.80381C10.3303 7.29569 10.4319 7.211 10.7876 7.211C11.0416 7.211 11.499 7.3465 12.5321 8.3458C13.7177 9.5314 13.921 10.0734 14.5815 10.0734H16.3261C16.8342 10.0734 17.0713 9.81933 16.9358 9.32815C16.7834 8.83697 16.2075 8.12561 15.4623 7.27875C15.0558 6.80451 14.446 6.27946 14.2597 6.0254C14.0057 5.68666 14.0734 5.55116 14.2597 5.24629C14.2428 5.24629 16.3769 2.23147 16.597 1.21524Z" fill="white"/>
</svg>
