<svg width="15" height="15" viewBox="0 0 15 15" fill="none" xmlns="http://www.w3.org/2000/svg">
<path fill-rule="evenodd" clip-rule="evenodd" d="M7.39573 14.6762H7.39278C6.19855 14.6757 5.0251 14.3761 3.98287 13.8076L0.200195 14.7999L1.2125 11.1023C0.588062 10.0202 0.259485 8.79264 0.26002 7.53502C0.261586 3.60075 3.4626 0.399902 7.39566 0.399902C9.30451 0.400726 11.0961 1.14383 12.4433 2.49261C13.7905 3.84131 14.532 5.63407 14.5313 7.54065C14.5297 11.474 11.3299 14.6746 7.39573 14.6762ZM4.15813 12.5157L4.3747 12.6443C5.28529 13.1846 6.3291 13.4705 7.39333 13.4709H7.39574C10.6646 13.4709 13.3252 10.8103 13.3265 7.54011C13.3271 5.95538 12.7108 4.46531 11.591 3.34426C10.4713 2.22322 8.98219 1.60554 7.39807 1.60499C4.12666 1.60499 1.46609 4.26532 1.46479 7.53531C1.46433 8.65596 1.77788 9.74733 2.37157 10.6916L2.51258 10.916L1.91344 13.1045L4.15813 12.5157ZM10.7464 9.07699C10.8707 9.13709 10.9547 9.17767 10.9906 9.23753C11.0351 9.31186 11.0351 9.66884 10.8866 10.0854C10.738 10.5018 10.0257 10.882 9.68313 10.9331C9.37598 10.9791 8.98726 10.9982 8.56016 10.8625C8.3012 10.7803 7.96912 10.6706 7.54374 10.4869C5.87227 9.76517 4.7427 8.14515 4.52921 7.83897C4.51426 7.81753 4.5038 7.80253 4.49796 7.79473L4.49652 7.79281C4.40217 7.66693 3.76994 6.82338 3.76994 5.95035C3.76994 5.12908 4.17336 4.69861 4.35906 4.50047C4.37178 4.48689 4.38348 4.47441 4.39396 4.46296C4.55738 4.28446 4.75055 4.23984 4.86941 4.23984C4.98825 4.23984 5.10724 4.24094 5.21112 4.24615C5.22394 4.2468 5.23727 4.24672 5.25106 4.24664C5.35496 4.24603 5.48449 4.24527 5.61228 4.55221C5.66144 4.67034 5.73337 4.84546 5.80924 5.03016C5.96266 5.40367 6.13216 5.81635 6.16199 5.87606C6.20657 5.96531 6.23628 6.06939 6.17685 6.18844C6.16793 6.20629 6.15968 6.22313 6.15179 6.23923C6.10716 6.33036 6.07432 6.39739 5.99856 6.48585C5.96877 6.52063 5.93798 6.55813 5.9072 6.59562C5.84586 6.67032 5.78452 6.74502 5.73112 6.79822C5.64186 6.88713 5.54894 6.98359 5.65295 7.16209C5.75695 7.34059 6.11477 7.92442 6.64481 8.3972C7.21457 8.90541 7.70977 9.12021 7.96077 9.22908C8.00979 9.25034 8.04949 9.26757 8.07862 9.28214C8.25685 9.37142 8.36086 9.35648 8.46487 9.23753C8.56888 9.11854 8.91057 8.71689 9.02941 8.53842C9.14825 8.35999 9.26716 8.38971 9.43056 8.44919C9.59402 8.50875 10.4706 8.94002 10.6489 9.02926C10.6837 9.04669 10.7162 9.06241 10.7464 9.07699Z" fill="white"/>
</svg>
